#tb 0: 1/50
0,          0,          0,        1,   152064, 0x41d6c6b9
0,          1,          1,        1,   152064, 0x4f9a2a05
0,          2,          2,        1,   152064, 0xe6a6c4e4
0,          3,          3,        1,   152064, 0x4a0fd26c
0,          4,          4,        1,   152064, 0x28cc1830
